<mxfile host="Electron" modified="2024-04-02T11:49:51.158Z" agent="Mozilla/5.0 (Windows NT 10.0; Win64; x64) AppleWebKit/537.36 (KHTML, like Gecko) draw.io/24.1.0 Chrome/120.0.6099.109 Electron/28.1.0 Safari/537.36" etag="RpUXL81cTA4Ww_M1_HxW" version="24.1.0" type="device">
  <diagram name="第 1 页" id="GSBP9Ic8UuohEQc4Tbug">
    <mxGraphModel dx="1562" dy="909" grid="1" gridSize="10" guides="1" tooltips="1" connect="1" arrows="1" fold="1" page="1" pageScale="1" pageWidth="827" pageHeight="1169" math="0" shadow="0">
      <root>
        <mxCell id="0" />
        <mxCell id="1" parent="0" />
        <mxCell id="Zpqer1g1NfeaMTfStzyc-1" value="&lt;font style=&quot;font-size: 17px;&quot;&gt;frontend&lt;/font&gt;" style="ellipse;whiteSpace=wrap;html=1;" parent="1" vertex="1">
          <mxGeometry x="100" y="320" width="120" height="80" as="geometry" />
        </mxCell>
        <mxCell id="Zpqer1g1NfeaMTfStzyc-2" value="&lt;font style=&quot;font-size: 17px;&quot;&gt;caller_read&lt;/font&gt;" style="ellipse;whiteSpace=wrap;html=1;" parent="1" vertex="1">
          <mxGeometry x="310" y="240" width="120" height="80" as="geometry" />
        </mxCell>
        <mxCell id="Zpqer1g1NfeaMTfStzyc-3" value="&lt;span style=&quot;font-size: 17px;&quot;&gt;caller_write&lt;/span&gt;" style="ellipse;whiteSpace=wrap;html=1;" parent="1" vertex="1">
          <mxGeometry x="310" y="400" width="120" height="80" as="geometry" />
        </mxCell>
        <mxCell id="Zpqer1g1NfeaMTfStzyc-4" value="&lt;font style=&quot;font-size: 17px;&quot;&gt;callee&lt;/font&gt;" style="ellipse;whiteSpace=wrap;html=1;" parent="1" vertex="1">
          <mxGeometry x="510" y="320" width="120" height="80" as="geometry" />
        </mxCell>
        <mxCell id="Zpqer1g1NfeaMTfStzyc-5" value="&lt;font style=&quot;font-size: 17px;&quot;&gt;database&lt;/font&gt;" style="shape=cylinder3;whiteSpace=wrap;html=1;boundedLbl=1;backgroundOutline=1;size=15;" parent="1" vertex="1">
          <mxGeometry x="710" y="310" width="80" height="100" as="geometry" />
        </mxCell>
        <mxCell id="Zpqer1g1NfeaMTfStzyc-7" value="" style="endArrow=classic;html=1;rounded=0;entryX=0;entryY=0.5;entryDx=0;entryDy=0;exitX=1;exitY=0.5;exitDx=0;exitDy=0;" parent="1" source="Zpqer1g1NfeaMTfStzyc-1" target="Zpqer1g1NfeaMTfStzyc-2" edge="1">
          <mxGeometry width="50" height="50" relative="1" as="geometry">
            <mxPoint x="200" y="330" as="sourcePoint" />
            <mxPoint x="250" y="280" as="targetPoint" />
          </mxGeometry>
        </mxCell>
        <mxCell id="Zpqer1g1NfeaMTfStzyc-11" value="(1)" style="edgeLabel;html=1;align=center;verticalAlign=middle;resizable=0;points=[];" parent="Zpqer1g1NfeaMTfStzyc-7" vertex="1" connectable="0">
          <mxGeometry x="-0.0229" y="2" relative="1" as="geometry">
            <mxPoint as="offset" />
          </mxGeometry>
        </mxCell>
        <mxCell id="Zpqer1g1NfeaMTfStzyc-8" value="" style="endArrow=classic;html=1;rounded=0;entryX=0;entryY=0.5;entryDx=0;entryDy=0;exitX=1;exitY=0.5;exitDx=0;exitDy=0;" parent="1" source="Zpqer1g1NfeaMTfStzyc-1" target="Zpqer1g1NfeaMTfStzyc-3" edge="1">
          <mxGeometry width="50" height="50" relative="1" as="geometry">
            <mxPoint x="210" y="340" as="sourcePoint" />
            <mxPoint x="320" y="290" as="targetPoint" />
          </mxGeometry>
        </mxCell>
        <mxCell id="Zpqer1g1NfeaMTfStzyc-12" value="(2)" style="edgeLabel;html=1;align=center;verticalAlign=middle;resizable=0;points=[];" parent="Zpqer1g1NfeaMTfStzyc-8" vertex="1" connectable="0">
          <mxGeometry x="-0.0069" relative="1" as="geometry">
            <mxPoint as="offset" />
          </mxGeometry>
        </mxCell>
        <mxCell id="Zpqer1g1NfeaMTfStzyc-9" value="" style="endArrow=classic;html=1;rounded=0;entryX=0;entryY=0.5;entryDx=0;entryDy=0;exitX=1;exitY=0.5;exitDx=0;exitDy=0;" parent="1" source="Zpqer1g1NfeaMTfStzyc-3" target="Zpqer1g1NfeaMTfStzyc-4" edge="1">
          <mxGeometry width="50" height="50" relative="1" as="geometry">
            <mxPoint x="220" y="350" as="sourcePoint" />
            <mxPoint x="330" y="300" as="targetPoint" />
          </mxGeometry>
        </mxCell>
        <mxCell id="Zpqer1g1NfeaMTfStzyc-14" value="(4)" style="edgeLabel;html=1;align=center;verticalAlign=middle;resizable=0;points=[];" parent="Zpqer1g1NfeaMTfStzyc-9" vertex="1" connectable="0">
          <mxGeometry x="-0.01" y="-2" relative="1" as="geometry">
            <mxPoint as="offset" />
          </mxGeometry>
        </mxCell>
        <mxCell id="Zpqer1g1NfeaMTfStzyc-10" value="" style="endArrow=classic;html=1;rounded=0;entryX=0;entryY=0.5;entryDx=0;entryDy=0;exitX=1;exitY=0.5;exitDx=0;exitDy=0;" parent="1" source="Zpqer1g1NfeaMTfStzyc-2" target="Zpqer1g1NfeaMTfStzyc-4" edge="1">
          <mxGeometry width="50" height="50" relative="1" as="geometry">
            <mxPoint x="230" y="360" as="sourcePoint" />
            <mxPoint x="340" y="310" as="targetPoint" />
          </mxGeometry>
        </mxCell>
        <mxCell id="Zpqer1g1NfeaMTfStzyc-13" value="(3)" style="edgeLabel;html=1;align=center;verticalAlign=middle;resizable=0;points=[];" parent="Zpqer1g1NfeaMTfStzyc-10" vertex="1" connectable="0">
          <mxGeometry x="-0.045" y="-1" relative="1" as="geometry">
            <mxPoint as="offset" />
          </mxGeometry>
        </mxCell>
        <mxCell id="Zpqer1g1NfeaMTfStzyc-15" value="" style="endArrow=classic;html=1;rounded=0;entryX=0;entryY=0.5;entryDx=0;entryDy=0;exitX=1;exitY=0.5;exitDx=0;exitDy=0;entryPerimeter=0;" parent="1" source="Zpqer1g1NfeaMTfStzyc-4" target="Zpqer1g1NfeaMTfStzyc-5" edge="1">
          <mxGeometry width="50" height="50" relative="1" as="geometry">
            <mxPoint x="240" y="370" as="sourcePoint" />
            <mxPoint x="350" y="320" as="targetPoint" />
          </mxGeometry>
        </mxCell>
        <mxCell id="Zpqer1g1NfeaMTfStzyc-16" value="(5)" style="edgeLabel;html=1;align=center;verticalAlign=middle;resizable=0;points=[];" parent="Zpqer1g1NfeaMTfStzyc-15" vertex="1" connectable="0">
          <mxGeometry x="0.12" y="-2" relative="1" as="geometry">
            <mxPoint x="-5" y="-2" as="offset" />
          </mxGeometry>
        </mxCell>
        <mxCell id="Zpqer1g1NfeaMTfStzyc-17" value="&lt;div style=&quot;text-align: justify; font-size: 16px;&quot;&gt;&lt;span style=&quot;background-color: initial;&quot;&gt;&lt;font style=&quot;font-size: 16px;&quot;&gt;(1) frontend_read&lt;/font&gt;&lt;/span&gt;&lt;/div&gt;&lt;div style=&quot;text-align: justify; font-size: 16px;&quot;&gt;&lt;font style=&quot;font-size: 16px;&quot;&gt;(2)&amp;nbsp;&lt;span style=&quot;background-color: initial;&quot;&gt;frontend_write&lt;/span&gt;&lt;br&gt;&lt;/font&gt;&lt;/div&gt;&lt;div style=&quot;text-align: justify; font-size: 16px;&quot;&gt;&lt;font style=&quot;font-size: 16px;&quot;&gt;(3) caller_read&lt;br&gt;&lt;/font&gt;&lt;/div&gt;&lt;div style=&quot;text-align: justify; font-size: 16px;&quot;&gt;&lt;font style=&quot;font-size: 16px;&quot;&gt;(4) caller_write&lt;br&gt;&lt;/font&gt;&lt;/div&gt;&lt;div style=&quot;text-align: justify; font-size: 16px;&quot;&gt;&lt;font style=&quot;font-size: 16px;&quot;&gt;(5) read &amp;amp; write&lt;/font&gt;&lt;br&gt;&lt;/div&gt;" style="text;html=1;align=center;verticalAlign=middle;whiteSpace=wrap;rounded=0;" parent="1" vertex="1">
          <mxGeometry x="510" y="430" width="200" height="140" as="geometry" />
        </mxCell>
      </root>
    </mxGraphModel>
  </diagram>
</mxfile>
